<svg xmlns="http://www.w3.org/2000/svg" viewBox="0 0 109 113" fill="none"><path fill-rule="evenodd" clip-rule="evenodd" d="M63.708 110.284c-2.86 3.601-8.657 1.628-8.72-2.97l-1.02-68.16h45.63c8.29 0 12.913 9.575 7.716 16.024l-43.606 55.106z" fill="url(#a)"/><path fill-rule="evenodd" clip-rule="evenodd" d="M63.708 110.284c-2.86 3.601-8.657 1.628-8.72-2.97l-1.02-68.16h45.63c8.29 0 12.913 9.575 7.716 16.024l-43.606 55.106z" fill="url(#b)" fill-opacity=".2"/><path fill-rule="evenodd" clip-rule="evenodd" d="M45.317 2.071c2.86-3.601 8.657-1.628 8.72 2.97l.442 68.16H9.417c-8.29 0-12.913-9.575-7.716-16.024L45.317 2.072z" fill="#3ECF8E"/><defs><linearGradient id="a" x1="53.974" y1="54.974" x2="94.163" y2="71.829" gradientUnits="userSpaceOnUse"><stop stop-color="#249361"/><stop offset="1" stop-color="#3ECF8E"/></linearGradient><linearGradient id="b" x1="36.156" y1="30.578" x2="54.484" y2="65.081" gradientUnits="userSpaceOnUse"><stop/><stop offset="1" stop-opacity="0"/></linearGradient></defs></svg>
